<svg width="128" height="128" viewBox="0 0 128 128" xmlns="http://www.w3.org/2000/svg">
  <style>
    .outline { stroke: #1a1a1a; stroke-width: 2; stroke-linejoin: round; stroke-linecap: round; }
    #left-leg { transform-origin: 50px 92px; animation: walkLeft 0.5s infinite alternate ease-in-out; }
    #right-leg { transform-origin: 78px 92px; animation: walkRight 0.5s infinite alternate ease-in-out; }
    #left-arm { transform-origin: 44px 62px; animation: armLeft 0.5s infinite alternate ease-in-out; }
    #right-arm { transform-origin: 84px 62px; animation: armRight 0.5s infinite alternate ease-in-out; }
    #body { transform-origin: 64px 60px; animation: breathe 2.5s infinite ease-in-out; }
    @keyframes walkLeft { from { transform: rotate(-10deg); } to { transform: rotate(10deg); } }
    @keyframes walkRight { from { transform: rotate(10deg); } to { transform: rotate(-10deg); } }
    @keyframes armLeft { from { transform: rotate(8deg); } to { transform: rotate(-8deg); } }
    @keyframes armRight { from { transform: rotate(-8deg); } to { transform: rotate(8deg); } }
    @keyframes breathe { 0%, 100% { transform: scaleY(1); } 50% { transform: scaleY(1.008); } }
  </style>
  <ellipse cx="64" cy="112" rx="22" ry="8" fill="#00000033"/>
  <g id="body">
    <g id="legs">
      <g id="left-leg"><rect x="46" y="78" width="12" height="28" rx="3" fill="#4a3728" class="outline"/><rect x="44" y="102" width="16" height="8" rx="2" fill="#2f2f2f" class="outline"/></g>
      <g id="right-leg"><rect x="70" y="78" width="12" height="28" rx="3" fill="#4a3728" class="outline"/><rect x="68" y="102" width="16" height="8" rx="2" fill="#2f2f2f" class="outline"/></g>
    </g>
    <g id="torso">
      <path d="M44 42 L84 42 L90 82 L38 82 Z" fill="#5a3a7a" class="outline"/>
      <path d="M48 42 L80 42 L82 56 L46 56 Z" fill="#7a4a9a" class="outline"/>
      <rect x="40" y="68" width="48" height="8" rx="2" fill="#8b6b2e" class="outline"/>
    </g>
    <g id="arms">
      <g id="left-arm">
        <rect x="30" y="46" width="12" height="34" rx="4" fill="#5a3a7a" class="outline"/>
        <g id="book">
          <rect x="24" y="42" width="14" height="18" rx="2" fill="#8b4513" class="outline"/>
          <rect x="26" y="44" width="10" height="14" rx="1" fill="#d4c5a9"/>
          <line x1="28" y1="46" x2="34" y2="46" stroke="#8b4513" stroke-width="0.8"/>
          <line x1="28" y1="49" x2="34" y2="49" stroke="#8b4513" stroke-width="0.8"/>
          <line x1="28" y1="52" x2="32" y2="52" stroke="#8b4513" stroke-width="0.8"/>
        </g>
      </g>
      <g id="right-arm">
        <rect x="86" y="46" width="12" height="34" rx="4" fill="#5a3a7a" class="outline"/>
        <g id="quill">
          <rect x="102" y="30" width="2" height="28" fill="#d4c5a9" class="outline"/>
          <path d="M101 30 Q103 22 106 20 Q108 24 105 30 Z" fill="#d4c5a9" class="outline"/>
          <path d="M103 24 Q106 28 104 34" stroke="#8b4513" stroke-width="0.8" fill="none"/>
        </g>
      </g>
    </g>
    <g id="head">
      <path d="M64 12 C48 12 38 24 38 40 L38 52 C38 58 90 58 90 52 L90 40 C90 24 80 12 64 12 Z" fill="#2a1a4a" class="outline"/>
      <ellipse cx="64" cy="38" rx="18" ry="18" fill="#d9b08c" class="outline"/>
      <circle cx="57" cy="38" r="2.5" fill="#111"/>
      <circle cx="71" cy="38" r="2.5" fill="#111"/>
      <path d="M58 47 Q64 51 70 47" stroke="#5a2d2d" stroke-width="2" fill="none" stroke-linecap="round"/>
      <g id="glasses">
        <circle cx="57" cy="38" r="6" fill="none" stroke="#c8a84e" stroke-width="1.5"/>
        <circle cx="71" cy="38" r="6" fill="none" stroke="#c8a84e" stroke-width="1.5"/>
        <line x1="63" y1="38" x2="65" y2="38" stroke="#c8a84e" stroke-width="1.5"/>
        <line x1="51" y1="38" x2="48" y2="38" stroke="#c8a84e" stroke-width="1.5"/>
        <line x1="77" y1="38" x2="80" y2="38" stroke="#c8a84e" stroke-width="1.5"/>
      </g>
    </g>
  </g>
</svg>
