<!-- Knowledge Dungeon Cozy placeholder. Procedural: generated by a committed script, no third-party media. -->
<!-- id: cozy-placeholder-parchment-floor -->
<!-- recipe: size 64x64 | seed 101 | families parchment -->
<!-- placeholder art for Pixi development, not final art. No SMIL and no CSS animation, so it is inert under prefers-reduced-motion. -->
<!-- Regenerate: node scripts/generate-cozy-placeholders.mjs -->
<!-- palette: parchment, moss, berry, ink, firelight (provisional values from public/assets/asset-licenses.json) -->
<svg xmlns="http://www.w3.org/2000/svg" width="64" height="64" viewBox="0 0 64 64">
  <rect width="64" height="64" fill="#f7ecd8"/>
  <g>
    <circle cx="17.61" cy="28.14" r="2.37" fill="#eddfc3"/>
    <circle cx="26.02" cy="44.62" r="1.2" fill="#e0cda6"/>
    <circle cx="56.22" cy="10.98" r="2.24" fill="#eddfc3"/>
    <circle cx="24.58" cy="39.87" r="2.27" fill="#eddfc3"/>
    <circle cx="17.72" cy="1.2" r="1.09" fill="#e0cda6"/>
    <circle cx="37.78" cy="11.28" r="2.19" fill="#eddfc3"/>
    <circle cx="34.63" cy="13.41" r="1.45" fill="#eddfc3"/>
    <circle cx="24.79" cy="6" r="1.69" fill="#e0cda6"/>
    <circle cx="55.65" cy="56.85" r="1.72" fill="#eddfc3"/>
    <circle cx="5.56" cy="15.89" r="1.67" fill="#eddfc3"/>
    <circle cx="44.23" cy="44.13" r="1.93" fill="#e0cda6"/>
    <circle cx="39.84" cy="8.06" r="2.15" fill="#eddfc3"/>
    <circle cx="7.91" cy="12.45" r="2.01" fill="#eddfc3"/>
    <circle cx="23.24" cy="13.3" r="2.31" fill="#e0cda6"/>
    <circle cx="7.26" cy="1.87" r="1.11" fill="#eddfc3"/>
    <circle cx="4.76" cy="12.23" r="1.52" fill="#eddfc3"/>
    <circle cx="24.24" cy="17.96" r="1.79" fill="#e0cda6"/>
    <circle cx="0.12" cy="63.68" r="1.55" fill="#eddfc3"/>
  </g>
  <rect x="0.5" y="0.5" width="63" height="63" fill="none" stroke="#b39a72" stroke-width="1" opacity="0.5"/>
</svg>
