<svg width="96" height="72" viewBox="0 0 96 72" xmlns="http://www.w3.org/2000/svg">
  <!-- Roof -->
  <polygon points="6,28 48,2 90,28" fill="#8B6914"/>
  <polygon points="8,28 48,4 88,28" fill="#6B4914"/>
  <rect x="4" y="26" width="88" height="4" fill="#6B4914"/>
  <!-- Stall body -->
  <rect x="16" y="28" width="64" height="44" fill="#5a4a3a" rx="2"/>
  <rect x="18" y="30" width="60" height="40" fill="#4a3a2a" rx="1"/>
  <!-- Counter -->
  <rect x="10" y="28" width="76" height="8" rx="2" fill="#8B6914"/>
  <rect x="10" y="28" width="76" height="2" fill="#a08020" opacity="0.5"/>
  <!-- Fish on counter - Common fish -->
  <ellipse cx="30" cy="26" rx="10" ry="4" fill="#5a6b3a"/>
  <polygon points="40,26 43,23 43,29" fill="#5a6b3a"/>
  <circle cx="22" cy="25" r="1.2" fill="#2a3a1a"/>
  <!-- Fish on counter - Epic fish -->
  <ellipse cx="60" cy="25" rx="9" ry="4" fill="#d4a017"/>
  <polygon points="69,25 72,22 72,28" fill="#d4a017"/>
  <circle cx="52" cy="24" r="1.2" fill="#806010"/>
  <!-- Fish on counter - Rare fish -->
  <ellipse cx="45" cy="27" rx="8" ry="3" fill="#3a6a9a"/>
  <polygon points="53,27 56,24 56,30" fill="#3a6a9a"/>
  <!-- Signboard -->
  <rect x="28" y="6" width="40" height="14" rx="2" fill="#2a1a0a"/>
  <text x="48" y="16" text-anchor="middle" fill="#f2e2c4" font-size="8" font-family="serif">FISH STAND</text>
</svg>
