<svg width="48" height="64" viewBox="0 0 48 64" xmlns="http://www.w3.org/2000/svg">
  <style>
    .walk { animation: npcWalk 3s infinite alternate ease-in-out; transform-origin: 24px 32px; }
    @keyframes npcWalk { from { transform: translateY(0); } to { transform: translateY(-2px); } }
  </style>
  <ellipse cx="24" cy="58" rx="12" ry="4" fill="#00000022"/>
  <g class="walk">
    <path d="M8 44 L8 24 C8 20 40 20 40 24 L40 44" fill="#5a3a5a"/>
    <circle cx="24" cy="18" r="8" fill="#d4c5a9"/>
    <circle cx="20" cy="16" r="1.5" fill="#333"/>
    <circle cx="28" cy="16" r="1.5" fill="#333"/>
    <path d="M20 22 Q24 25 28 22" stroke="#8a6a4a" stroke-width="1.2" fill="none"/>
    <path d="M18 14 Q22 10 28 14 Q30 12 28 8 Q24 10 20 8 Q18 12 18 14" fill="#6b4a6b"/>
    <rect x="16" y="30" width="6" height="14" rx="2" fill="#7a5a2a"/>
    <rect x="26" y="30" width="10" height="14" rx="2" fill="#c8a84e"/>
    <line x1="28" y1="33" x2="34" y2="33" stroke="#8a6a2a" stroke-width="1"/>
    <line x1="28" y1="37" x2="34" y2="37" stroke="#8a6a2a" stroke-width="1"/>
  </g>
</svg>
