<svg xmlns="http://www.w3.org/2000/svg" viewBox="0 0 32 32">
  <rect x="0" y="8" width="32" height="16" fill="#4a4f56" opacity="0.98"/>
  <rect x="0" y="8" width="32" height="2" fill="#9ba3aa" opacity="0.55"/>
  <rect x="0" y="22" width="32" height="2" fill="#2b3036" opacity="0.7"/>
  <rect x="2" y="10" width="5" height="12" fill="#7f878f" opacity="0.9"/>
  <rect x="7" y="10" width="1" height="12" fill="#2b3036" opacity="0.65"/>
  <rect x="8" y="10" width="6" height="12" fill="#717982" opacity="0.92"/>
  <rect x="14" y="10" width="1" height="12" fill="#2b3036" opacity="0.65"/>
  <rect x="15" y="10" width="5" height="12" fill="#8a9299" opacity="0.9"/>
  <rect x="20" y="10" width="1" height="12" fill="#2b3036" opacity="0.65"/>
  <rect x="21" y="10" width="6" height="12" fill="#6d757e" opacity="0.92"/>
  <rect x="27" y="10" width="1" height="12" fill="#2b3036" opacity="0.65"/>
  <rect x="28" y="10" width="2" height="12" fill="#848c93" opacity="0.88"/>
  <rect x="3" y="12" width="3" height="2" fill="#c9d0d5" opacity="0.22"/>
  <rect x="10" y="16" width="3" height="2" fill="#c9d0d5" opacity="0.2"/>
  <rect x="22" y="13" width="3" height="2" fill="#c9d0d5" opacity="0.18"/>
</svg>